<svg xmlns="http://www.w3.org/2000/svg" viewBox="0 0 16 16" width="32" height="32">
  <!-- 8-bit pixel art curry bowl -->
  <style>rect{width:1px;height:1px}</style>
  <!-- Steam -->
  <rect x="5" y="0" fill="#888"/>
  <rect x="7" y="0" fill="#888"/>
  <rect x="9" y="0" fill="#888"/>
  <rect x="6" y="1" fill="#aaa"/>
  <rect x="8" y="1" fill="#aaa"/>
  <rect x="10" y="1" fill="#aaa"/>
  <!-- Curry surface -->
  <rect x="3" y="3" fill="#ff9f43"/>
  <rect x="4" y="3" fill="#ff9f43"/>
  <rect x="5" y="3" fill="#ff9f43"/>
  <rect x="6" y="3" fill="#ff9f43"/>
  <rect x="7" y="3" fill="#ff9f43"/>
  <rect x="8" y="3" fill="#ff9f43"/>
  <rect x="9" y="3" fill="#ff9f43"/>
  <rect x="10" y="3" fill="#ff9f43"/>
  <rect x="11" y="3" fill="#ff9f43"/>
  <!-- Spice flecks on curry -->
  <rect x="5" y="3" fill="#e74c3c"/>
  <rect x="8" y="3" fill="#e74c3c"/>
  <rect x="10" y="3" fill="#2ecc71"/>
  <!-- Bowl top rim -->
  <rect x="2" y="4" fill="#e0e0e0"/>
  <rect x="3" y="4" fill="#f5f5f5"/>
  <rect x="4" y="4" fill="#f5f5f5"/>
  <rect x="5" y="4" fill="#f5f5f5"/>
  <rect x="6" y="4" fill="#f5f5f5"/>
  <rect x="7" y="4" fill="#f5f5f5"/>
  <rect x="8" y="4" fill="#f5f5f5"/>
  <rect x="9" y="4" fill="#f5f5f5"/>
  <rect x="10" y="4" fill="#f5f5f5"/>
  <rect x="11" y="4" fill="#f5f5f5"/>
  <rect x="12" y="4" fill="#e0e0e0"/>
  <!-- Bowl body -->
  <rect x="2" y="5" fill="#e0e0e0"/>
  <rect x="3" y="5" fill="#f5f5f5"/>
  <rect x="4" y="5" fill="#ff9f43"/>
  <rect x="5" y="5" fill="#ff9f43"/>
  <rect x="6" y="5" fill="#e88b2e"/>
  <rect x="7" y="5" fill="#ff9f43"/>
  <rect x="8" y="5" fill="#ff9f43"/>
  <rect x="9" y="5" fill="#e88b2e"/>
  <rect x="10" y="5" fill="#ff9f43"/>
  <rect x="11" y="5" fill="#f5f5f5"/>
  <rect x="12" y="5" fill="#e0e0e0"/>
  <rect x="2" y="6" fill="#e0e0e0"/>
  <rect x="3" y="6" fill="#f5f5f5"/>
  <rect x="4" y="6" fill="#e88b2e"/>
  <rect x="5" y="6" fill="#ff9f43"/>
  <rect x="6" y="6" fill="#ff9f43"/>
  <rect x="7" y="6" fill="#e88b2e"/>
  <rect x="8" y="6" fill="#ff9f43"/>
  <rect x="9" y="6" fill="#ff9f43"/>
  <rect x="10" y="6" fill="#e88b2e"/>
  <rect x="11" y="6" fill="#f5f5f5"/>
  <rect x="12" y="6" fill="#e0e0e0"/>
  <rect x="3" y="7" fill="#e0e0e0"/>
  <rect x="4" y="7" fill="#f5f5f5"/>
  <rect x="5" y="7" fill="#ff9f43"/>
  <rect x="6" y="7" fill="#ff9f43"/>
  <rect x="7" y="7" fill="#ff9f43"/>
  <rect x="8" y="7" fill="#ff9f43"/>
  <rect x="9" y="7" fill="#ff9f43"/>
  <rect x="10" y="7" fill="#f5f5f5"/>
  <rect x="11" y="7" fill="#e0e0e0"/>
  <rect x="3" y="8" fill="#e0e0e0"/>
  <rect x="4" y="8" fill="#f5f5f5"/>
  <rect x="5" y="8" fill="#f5f5f5"/>
  <rect x="6" y="8" fill="#f5f5f5"/>
  <rect x="7" y="8" fill="#f5f5f5"/>
  <rect x="8" y="8" fill="#f5f5f5"/>
  <rect x="9" y="8" fill="#f5f5f5"/>
  <rect x="10" y="8" fill="#f5f5f5"/>
  <rect x="11" y="8" fill="#e0e0e0"/>
  <!-- Bowl bottom -->
  <rect x="4" y="9" fill="#e0e0e0"/>
  <rect x="5" y="9" fill="#d0d0d0"/>
  <rect x="6" y="9" fill="#d0d0d0"/>
  <rect x="7" y="9" fill="#d0d0d0"/>
  <rect x="8" y="9" fill="#d0d0d0"/>
  <rect x="9" y="9" fill="#d0d0d0"/>
  <rect x="10" y="9" fill="#e0e0e0"/>
  <rect x="5" y="10" fill="#d0d0d0"/>
  <rect x="6" y="10" fill="#c0c0c0"/>
  <rect x="7" y="10" fill="#c0c0c0"/>
  <rect x="8" y="10" fill="#c0c0c0"/>
  <rect x="9" y="10" fill="#d0d0d0"/>
  <!-- Base/plate -->
  <rect x="4" y="11" fill="#bbb"/>
  <rect x="5" y="11" fill="#ccc"/>
  <rect x="6" y="11" fill="#ccc"/>
  <rect x="7" y="11" fill="#ccc"/>
  <rect x="8" y="11" fill="#ccc"/>
  <rect x="9" y="11" fill="#ccc"/>
  <rect x="10" y="11" fill="#bbb"/>
</svg>
